<svg version="1.1" id="marker-15" xmlns="http://www.w3.org/2000/svg" x="0px" y="0px" viewBox="0 0 15 15" style="enable-background:new 0 0 15 15" xml:space="preserve"><g><path d="M3.5,6.7L3.4,6.6C3.1,6,3,5.3,3,4.7c0-2.5,2-4.5,4.5-4.5s4.5,2,4.5,4.5c0,0.7-0.1,1.3-0.4,1.9l-0.1,0.2l-4,7.9 L3.5,6.7z M7.5,1.8c-1.6,0-2.9,1.3-2.9,2.9s1.3,2.9,2.9,2.9c1.6,0,2.9-1.3,2.9-2.9S9.1,1.8,7.5,1.8z" style="fill:#FEC013"/><path d="M7.5,0.3c2.4,0,4.4,2,4.4,4.4c0,0.7-0.1,1.3-0.4,1.9l-0.1,0.2l-3.9,7.7L3.6,6.8L3.5,6.5 C3.2,5.9,3.1,5.3,3.1,4.7C3.1,2.2,5.1,0.3,7.5,0.3 M7.5,7.7c1.7,0,3-1.4,3-3c0-1.7-1.4-3-3-3c-1.7,0-3,1.4-3,3 C4.5,6.4,5.8,7.7,7.5,7.7 M7.5,0C4.9,0,2.8,2.1,2.8,4.7c0,0.7,0.2,1.4,0.5,2l0,0L7.5,15l4.2-8.4l0,0c0.3-0.6,0.5-1.3,0.5-2 C12.2,2.1,10.1,0,7.5,0L7.5,0z M7.5,7.5C6,7.5,4.7,6.2,4.7,4.7c0-1.5,1.2-2.8,2.8-2.8c1.5,0,2.8,1.2,2.8,2.8 C10.3,6.2,9,7.5,7.5,7.5L7.5,7.5z" style="fill:#F29F1D"/></g></svg>